HIERARCHY
ROOT newVegas:Hips
{
	OFFSET 0.000000 96.479958 0.000000
	CHANNELS 6 Xposition Yposition Zposition Xrotation Yrotation Zrotation
	JOINT newVegas:Pelvis
	{
		OFFSET 0.000000 0.000000 0.000000
		CHANNELS 3 Xrotation Yrotation Zrotation
		JOINT newVegas:LeftUpLeg
		{
			OFFSET 18.735201 -5.666702 -4.541200
			CHANNELS 3 Xrotation Yrotation Zrotation
			JOINT newVegas:LeftLeg
			{
				OFFSET -0.021200 -31.938179 0.493100
				CHANNELS 3 Xrotation Yrotation Zrotation
				JOINT newVegas:LeftFoot
				{
					OFFSET 0.021200 -31.938179 -4.336299
					CHANNELS 3 Xrotation Yrotation Zrotation
					JOINT newVegas:LeftToeBase
					{
						OFFSET 0.943001 -26.722000 15.023500
						CHANNELS 3 Xrotation Yrotation Zrotation
						End Site
						{
							OFFSET 0.000000 30.670183 0.000000
						}
					}
				}
				JOINT newVegas:Left_PantLeg
				{
					OFFSET 0.663870 -9.044666 -1.108900
					CHANNELS 3 Xrotation Yrotation Zrotation
					End Site
					{
						OFFSET 1.415995 20.635357 0.000000
					}
				}
			}
		}
		JOINT newVegas:RightUpLeg
		{
			OFFSET -18.735201 -5.666702 -4.541200
			CHANNELS 3 Xrotation Yrotation Zrotation
			JOINT newVegas:RightLeg
			{
				OFFSET 0.018946 -31.938133 0.493100
				CHANNELS 3 Xrotation Yrotation Zrotation
				JOINT newVegas:RightFoot
				{
					OFFSET -0.018946 -31.938126 -4.336299
					CHANNELS 3 Xrotation Yrotation Zrotation
					JOINT newVegas:RightToeBase
					{
						OFFSET -0.943001 -26.722004 15.023500
						CHANNELS 3 Xrotation Yrotation Zrotation
						End Site
						{
							OFFSET 0.000000 30.670187 0.000000
						}
					}
				}
				JOINT newVegas:Right_PantLeg
				{
					OFFSET -0.661674 -9.044716 -1.108900
					CHANNELS 3 Xrotation Yrotation Zrotation
					End Site
					{
						OFFSET -1.415958 20.635269 0.000000
					}
				}
			}
		}
	}
	JOINT newVegas:Spine
	{
		OFFSET 0.000000 10.199997 -0.299500
		CHANNELS 3 Xrotation Yrotation Zrotation
		JOINT newVegas:Spine1
		{
			OFFSET 0.000000 11.900002 -1.516600
			CHANNELS 3 Xrotation Yrotation Zrotation
			JOINT newVegas:Spine2
			{
				OFFSET 0.000000 13.600006 -2.842500
				CHANNELS 3 Xrotation Yrotation Zrotation
				JOINT newVegas:Neck
				{
					OFFSET 0.000000 9.624100 -2.890100
					CHANNELS 3 Xrotation Yrotation Zrotation
					JOINT newVegas:Head
					{
						OFFSET 0.000000 14.068802 -1.351900
						CHANNELS 3 Xrotation Yrotation Zrotation
						JOINT newVegas:Hair_Back
						{
							OFFSET 0.000000 3.231903 -17.524799
							CHANNELS 3 Xrotation Yrotation Zrotation
							End Site
							{
								OFFSET 0.000000 19.849884 0.000000
							}
						}
						JOINT newVegas:Hair_Front
						{
							OFFSET 0.000000 31.260406 4.573800
							CHANNELS 3 Xrotation Yrotation Zrotation
							JOINT newVegas:Hair_Front1
							{
								OFFSET 0.000000 2.284103 11.993300
								CHANNELS 3 Xrotation Yrotation Zrotation
								JOINT newVegas:Hair_Front2
								{
									OFFSET 0.000000 2.284103 11.993300
									CHANNELS 3 Xrotation Yrotation Zrotation
									End Site
									{
										OFFSET 0.000000 12.208862 0.000000
									}
								}
							}
						}
						JOINT newVegas:Jowel
						{
							OFFSET 0.000000 -7.458206 6.864100
							CHANNELS 3 Xrotation Yrotation Zrotation
							End Site
							{
								OFFSET 0.000000 19.849884 0.000000
							}
						}
					}
				}
				JOINT newVegas:LeftShoulder
				{
					OFFSET 15.263000 10.923401 -0.547700
					CHANNELS 3 Xrotation Yrotation Zrotation
					JOINT newVegas:LeftArm
					{
						OFFSET 25.438599 -2.830597 -13.032500
						CHANNELS 3 Xrotation Yrotation Zrotation
						JOINT newVegas:LeftForeArm
						{
							OFFSET 29.960503 0.000000 0.000000
							CHANNELS 3 Xrotation Yrotation Zrotation
							JOINT newVegas:LeftHand
							{
								OFFSET 27.849251 0.000000 0.000000
								CHANNELS 3 Xrotation Yrotation Zrotation
								JOINT newVegas:LeftHandThumb1
								{
									OFFSET 4.487587 -3.305161 6.305391
									CHANNELS 3 Xrotation Yrotation Zrotation
									JOINT newVegas:LeftHandThumb2
									{
										OFFSET 5.480453 -3.164139 3.164143
										CHANNELS 3 Xrotation Yrotation Zrotation
										JOINT newVegas:LeftHandThumb3
										{
											OFFSET 5.159721 -2.978973 2.978967
											CHANNELS 3 Xrotation Yrotation Zrotation
											End Site
											{
												OFFSET 2.494507 5.926697 1.738678
											}
										}
									}
								}
								JOINT newVegas:LeftHandIndex1
								{
									OFFSET 18.578728 -0.527832 5.208049
									CHANNELS 3 Xrotation Yrotation Zrotation
									JOINT newVegas:LeftHandIndex2
									{
										OFFSET 3.192009 0.000000 0.000000
										CHANNELS 3 Xrotation Yrotation Zrotation
										JOINT newVegas:LeftHandIndex3
										{
											OFFSET 3.835129 0.000000 0.000000
											CHANNELS 3 Xrotation Yrotation Zrotation
											End Site
											{
												OFFSET -0.034599 3.816971 0.371180
											}
										}
									}
								}
								JOINT newVegas:LeftHandMiddle1
								{
									OFFSET 18.476105 0.000000 0.000000
									CHANNELS 3 Xrotation Yrotation Zrotation
									JOINT newVegas:LeftHandMiddle2
									{
										OFFSET 3.324875 0.000000 0.000000
										CHANNELS 3 Xrotation Yrotation Zrotation
										JOINT newVegas:LeftHandMiddle3
										{
											OFFSET 4.596550 0.000000 0.000000
											CHANNELS 3 Xrotation Yrotation Zrotation
											End Site
											{
												OFFSET 0.057701 4.578827 0.399218
											}
										}
									}
								}
								JOINT newVegas:LeftHandRing1
								{
									OFFSET 17.732719 0.121887 -4.201567
									CHANNELS 3 Xrotation Yrotation Zrotation
									JOINT newVegas:LeftHandRing2
									{
										OFFSET 2.733170 0.000000 0.000000
										CHANNELS 3 Xrotation Yrotation Zrotation
										JOINT newVegas:LeftHandRing3
										{
											OFFSET 3.178268 0.000000 0.000000
											CHANNELS 3 Xrotation Yrotation Zrotation
											End Site
											{
												OFFSET 0.119102 3.170624 0.185394
											}
										}
									}
								}
								JOINT newVegas:LeftHandPinky1
								{
									OFFSET 15.989624 -0.606689 -7.535461
									CHANNELS 3 Xrotation Yrotation Zrotation
									JOINT newVegas:LeftHandPinky2
									{
										OFFSET 2.538986 0.000000 0.000000
										CHANNELS 3 Xrotation Yrotation Zrotation
										JOINT newVegas:LeftHandPinky3
										{
											OFFSET 2.593102 0.000000 0.000000
											CHANNELS 3 Xrotation Yrotation Zrotation
											End Site
											{
												OFFSET -0.150902 2.584198 0.152708
											}
										}
									}
								}
							}
							JOINT newVegas:Left_Sleeve
							{
								OFFSET 0.267448 -0.649796 0.577675
								CHANNELS 3 Xrotation Yrotation Zrotation
								End Site
								{
									OFFSET 0.000000 15.991241 0.000000
								}
							}
							JOINT newVegas:Left_CapeC
							{
								OFFSET 15.715958 -8.608795 -6.935905
								CHANNELS 3 Xrotation Yrotation Zrotation
								JOINT newVegas:Left_CapeC1
								{
									OFFSET 0.000000 -8.688499 0.000000
									CHANNELS 3 Xrotation Yrotation Zrotation
									End Site
									{
										OFFSET 0.000000 8.688499 0.000000
									}
								}
							}
						}
						JOINT newVegas:Left_CapeB
						{
							OFFSET 26.118385 -8.608795 -7.079235
							CHANNELS 3 Xrotation Yrotation Zrotation
							JOINT newVegas:Left_CapeB1
							{
								OFFSET 0.000000 -8.688499 0.000000
								CHANNELS 3 Xrotation Yrotation Zrotation
								End Site
								{
									OFFSET 0.000000 8.688499 0.000000
								}
							}
						}
						JOINT newVegas:Left_CapeA
						{
							OFFSET 5.115639 -8.608795 -10.395809
							CHANNELS 3 Xrotation Yrotation Zrotation
							JOINT newVegas:Left_CapeA1
							{
								OFFSET 0.000000 -8.688499 0.000000
								CHANNELS 3 Xrotation Yrotation Zrotation
								End Site
								{
									OFFSET 0.000000 8.688499 0.000000
								}
							}
						}
					}
				}
				JOINT newVegas:RightShoulder
				{
					OFFSET -15.263000 10.923401 -0.547700
					CHANNELS 3 Xrotation Yrotation Zrotation
					JOINT newVegas:RightArm
					{
						OFFSET -25.438599 -2.830597 -13.032500
						CHANNELS 3 Xrotation Yrotation Zrotation
						JOINT newVegas:RightForeArm
						{
							OFFSET -29.960503 0.000000 0.000000
							CHANNELS 3 Xrotation Yrotation Zrotation
							JOINT newVegas:RightHand
							{
								OFFSET -27.849251 0.000000 0.000000
								CHANNELS 3 Xrotation Yrotation Zrotation
								JOINT newVegas:RightHandThumb1
								{
									OFFSET -4.487587 -3.305161 6.305391
									CHANNELS 3 Xrotation Yrotation Zrotation
									JOINT newVegas:RightHandThumb2
									{
										OFFSET -5.480453 -3.164139 3.164143
										CHANNELS 3 Xrotation Yrotation Zrotation
										JOINT newVegas:RightHandThumb3
										{
											OFFSET -5.159721 -2.978973 2.978967
											CHANNELS 3 Xrotation Yrotation Zrotation
											End Site
											{
												OFFSET -2.494507 5.926697 1.738678
											}
										}
									}
								}
								JOINT newVegas:RightHandIndex1
								{
									OFFSET -18.578728 -0.527832 5.208049
									CHANNELS 3 Xrotation Yrotation Zrotation
									JOINT newVegas:RightHandIndex2
									{
										OFFSET -3.192009 0.000000 0.000000
										CHANNELS 3 Xrotation Yrotation Zrotation
										JOINT newVegas:RightHandIndex3
										{
											OFFSET -3.835129 0.000000 0.000000
											CHANNELS 3 Xrotation Yrotation Zrotation
											End Site
											{
												OFFSET 0.034599 3.816971 0.371180
											}
										}
									}
								}
								JOINT newVegas:RightHandMiddle1
								{
									OFFSET -18.476105 0.000000 0.000000
									CHANNELS 3 Xrotation Yrotation Zrotation
									JOINT newVegas:RightHandMiddle2
									{
										OFFSET -3.324875 0.000000 0.000000
										CHANNELS 3 Xrotation Yrotation Zrotation
										JOINT newVegas:RightHandMiddle3
										{
											OFFSET -4.596550 0.000000 0.000000
											CHANNELS 3 Xrotation Yrotation Zrotation
											End Site
											{
												OFFSET -0.057701 4.578827 0.399218
											}
										}
									}
								}
								JOINT newVegas:RightHandRing1
								{
									OFFSET -17.732719 0.121887 -4.201567
									CHANNELS 3 Xrotation Yrotation Zrotation
									JOINT newVegas:RightHandRing2
									{
										OFFSET -2.733170 0.000000 0.000000
										CHANNELS 3 Xrotation Yrotation Zrotation
										JOINT newVegas:RightHandRing3
										{
											OFFSET -3.178268 0.000000 0.000000
											CHANNELS 3 Xrotation Yrotation Zrotation
											End Site
											{
												OFFSET -0.119102 3.170624 0.185394
											}
										}
									}
								}
								JOINT newVegas:RightHandPinky1
								{
									OFFSET -15.989624 -0.606689 -7.535461
									CHANNELS 3 Xrotation Yrotation Zrotation
									JOINT newVegas:RightHandPinky2
									{
										OFFSET -2.538986 0.000000 0.000000
										CHANNELS 3 Xrotation Yrotation Zrotation
										JOINT newVegas:RightHandPinky3
										{
											OFFSET -2.593102 0.000000 0.000000
											CHANNELS 3 Xrotation Yrotation Zrotation
											End Site
											{
												OFFSET 0.150902 2.584198 0.152708
											}
										}
									}
								}
							}
							JOINT newVegas:Right_CapeC
							{
								OFFSET -15.715958 -8.608795 -6.935905
								CHANNELS 3 Xrotation Yrotation Zrotation
								JOINT newVegas:Right_CapeC1
								{
									OFFSET 0.000000 -8.688499 0.000000
									CHANNELS 3 Xrotation Yrotation Zrotation
									End Site
									{
										OFFSET 0.000000 8.688499 0.000000
									}
								}
							}
							JOINT newVegas:Right_Sleeve
							{
								OFFSET -0.267448 -0.649994 0.577675
								CHANNELS 3 Xrotation Yrotation Zrotation
								End Site
								{
									OFFSET 0.000000 15.991302 0.000000
								}
							}
						}
						JOINT newVegas:Right_CapeA
						{
							OFFSET -5.115540 -8.608795 -10.395824
							CHANNELS 3 Xrotation Yrotation Zrotation
							JOINT newVegas:Right_CapeA1
							{
								OFFSET 0.000000 -8.688499 0.000000
								CHANNELS 3 Xrotation Yrotation Zrotation
								End Site
								{
									OFFSET 0.000000 8.688499 0.000000
								}
							}
						}
						JOINT newVegas:Right_CapeB
						{
							OFFSET -26.118187 -8.608795 -7.079266
							CHANNELS 3 Xrotation Yrotation Zrotation
							JOINT newVegas:Right_CapeB1
							{
								OFFSET 0.000000 -8.688499 0.000000
								CHANNELS 3 Xrotation Yrotation Zrotation
								End Site
								{
									OFFSET 0.000000 8.688499 0.000000
								}
							}
						}
					}
				}
				JOINT newVegas:Left_Collar
				{
					OFFSET 18.625099 8.655502 8.828100
					CHANNELS 3 Xrotation Yrotation Zrotation
					JOINT newVegas:Left_Collar1
					{
						OFFSET 14.783401 10.540405 -1.259500
						CHANNELS 3 Xrotation Yrotation Zrotation
						End Site
						{
							OFFSET 0.000000 18.199875 0.000000
						}
					}
				}
				JOINT newVegas:Collar_Back
				{
					OFFSET 0.000000 15.630707 -20.132601
					CHANNELS 3 Xrotation Yrotation Zrotation
					End Site
					{
						OFFSET 0.000000 22.523010 0.000000
					}
				}
				JOINT newVegas:Left_Peck
				{
					OFFSET 17.239599 -5.132599 25.482599
					CHANNELS 3 Xrotation Yrotation Zrotation
					End Site
					{
						OFFSET 0.000000 22.523010 0.000000
					}
				}
				JOINT newVegas:Right_Peck
				{
					OFFSET -17.239599 -5.132202 25.482599
					CHANNELS 3 Xrotation Yrotation Zrotation
					End Site
					{
						OFFSET 0.000000 22.523010 0.000000
					}
				}
				JOINT newVegas:Right_Collar
				{
					OFFSET -18.625099 8.655792 8.828100
					CHANNELS 3 Xrotation Yrotation Zrotation
					JOINT newVegas:Right_Collar1
					{
						OFFSET -14.783401 10.539993 -1.259500
						CHANNELS 3 Xrotation Yrotation Zrotation
						End Site
						{
							OFFSET 0.000000 18.199631 0.000000
						}
					}
				}
			}
		}
		JOINT newVegas:Belly
		{
			OFFSET 0.000000 -6.540398 9.014299
			CHANNELS 3 Xrotation Yrotation Zrotation
			End Site
			{
				OFFSET 0.000000 11.566666 0.000000
			}
		}
	}
	JOINT newVegas:ElvisFacialAnim_Joint
	{
		OFFSET 1.000000 -95.330101 -8.825800
		CHANNELS 3 Xrotation Yrotation Zrotation
		End Site
		{
			OFFSET 0.000000 35.315800 0.000000
		}
	}
}
MOTION
Frames: 4
Frame Time: 0.033333
-0.678984 56.808289 8.681286 -25.543955 -1.115846 2.901978 -0.000003 0.000000 -0.000000 -96.483027 6.553334 18.644559 99.481978 4.386368 -6.950219 6.414321 -0.182409 12.735298 -0.000001 0.000002 -0.000000 -0.000000 0.000001 0.000001 -100.861485 -2.749386 -12.569274 96.281919 7.256826 4.189557 20.137495 0.032402 -14.875247 -0.000000 0.000000 -0.000000 0.000001 -0.000000 -0.000001 4.910124 -2.046917 -2.310935 9.994624 -2.466749 -1.357459 9.990169 -2.752943 -1.334686 1.207554 1.700018 0.195177 1.207553 1.700016 0.195177 -0.000000 -0.000000 0.000000 1.207622 1.700016 0.195175 1.207553 1.700019 0.195177 0.000000 -0.000000 -0.000000 -0.000000 -0.000000 0.000000 2.177677 19.272555 -17.666394 52.069336 -1.711615 -39.079925 0.000031 -85.609694 -0.000033 -5.041800 1.497625 19.061518 -0.988010 -5.640374 -8.149643 8.367172 30.759101 2.809237 0.000005 -0.000001 -0.000004 0.146357 3.287665 -9.104704 0.641759 2.667915 -27.046444 -0.000000 0.000001 0.000000 0.229942 3.744947 -13.649630 0.509577 2.391669 -24.052378 0.000000 0.000002 -0.000002 0.266399 3.886978 -15.082723 0.534539 2.446766 -24.643589 0.000002 -0.000001 0.000000 0.253379 3.837955 -14.586871 0.527220 2.430782 -24.471939 -0.000003 -0.000002 0.000001 0.000000 0.000001 -0.000000 0.000000 0.000001 -0.000000 -0.000001 0.000001 0.000000 0.000001 0.000003 -0.000005 0.000001 0.000002 -0.000005 0.000001 0.000003 -0.000005 -0.000000 0.000001 -0.000005 1.309657 -5.483614 18.909662 57.887793 8.835948 27.127712 0.000288 86.351008 -0.000215 -7.035348 -2.324337 -45.883736 1.603555 11.961433 15.713292 8.848268 -35.914142 -3.558453 0.000001 -0.000003 0.000001 0.465512 -4.208982 24.410502 0.339157 -1.746371 21.979428 -0.000002 0.000003 -0.000001 0.624647 -4.525931 28.774983 0.484305 -2.069776 26.336591 0.000001 0.000002 -0.000001 0.938562 -5.019339 35.977707 0.776055 -2.576094 33.525014 -0.000001 -0.000001 0.000000 0.930704 -5.008555 35.812970 0.768680 -2.564921 33.360693 -0.000001 -0.000000 -0.000000 0.000002 -0.000001 0.000003 0.000001 -0.000002 0.000003 0.000002 -0.000001 0.000003 0.000002 0.000003 0.000002 0.000002 0.000003 0.000003 0.000002 0.000003 0.000002 0.000003 0.000004 0.000003 -0.000000 -0.000001 -0.000000 -0.000000 -0.000001 -0.000000 -0.000000 -0.000001 -0.000000 -0.000000 -0.000001 -0.000000 -0.000000 -0.000001 -0.000000 -0.000000 -0.000001 -0.000000 -0.000000 -0.000001 -0.000000 -0.000001 -0.000000 -0.000000 -0.000003 0.000000 -0.000000 
-0.679895 56.817528 10.189102 -25.544061 -1.113930 2.904630 0.000000 0.000000 -0.000000 -96.592836 6.507723 18.685405 99.839573 4.388725 -6.946257 6.282628 -0.183563 12.758080 0.000000 -0.000003 0.000000 -0.000000 -0.000002 0.000001 -100.864791 -2.710077 -12.614502 96.395730 6.799358 4.195538 20.073052 0.502244 -15.058533 -0.000001 0.000000 -0.000000 0.000004 0.000000 -0.000001 5.077588 -2.068239 -2.311723 10.332778 -2.471505 -1.357460 10.327457 -2.752941 -1.334686 1.275341 1.699838 0.196684 1.275343 1.699840 0.196684 -0.000000 -0.000000 0.000000 1.275338 1.699838 0.196684 1.275338 1.699842 0.196684 0.000000 0.000000 0.000000 -0.000000 -0.000000 0.000000 2.210605 19.145085 -17.181957 50.288156 -2.358570 -38.736783 0.000049 -84.880762 0.000077 -4.830834 0.106437 19.727437 -0.988006 -5.640392 -8.149641 8.367165 30.759105 2.809269 -0.000002 0.000001 -0.000003 0.146351 3.287664 -9.104700 0.641756 2.667886 -27.046455 -0.000003 0.000000 0.000001 0.229691 3.743965 -13.639662 0.509575 2.391648 -24.052400 -0.000000 0.000001 -0.000002 0.266396 3.886968 -15.082717 0.534540 2.446753 -24.643585 -0.000003 -0.000002 -0.000002 0.253372 3.837962 -14.586885 0.527235 2.430761 -24.471948 0.000001 -0.000003 -0.000000 -0.000002 0.000000 -0.000000 -0.000002 0.000000 -0.000000 -0.000003 0.000000 0.000000 -0.000000 0.000001 0.000001 0.000000 0.000000 -0.000001 -0.000000 0.000001 0.000001 -0.000001 -0.000000 0.000001 1.305814 -5.636801 18.979658 55.723166 9.624747 26.849757 -0.000169 85.600391 0.000134 -8.635402 -0.240932 -45.444486 1.603542 11.961445 15.713311 8.848281 -35.914132 -3.558447 -0.000001 -0.000002 -0.000001 0.465495 -4.208965 24.410509 0.339150 -1.746368 21.979445 0.000001 0.000002 -0.000001 0.624637 -4.525914 28.774989 0.484306 -2.069777 26.336590 -0.000001 0.000000 0.000001 0.938570 -5.019321 35.977704 0.776044 -2.576093 33.525024 -0.000002 0.000002 -0.000001 0.930697 -5.008531 35.813007 0.768674 -2.564940 33.360669 0.000003 0.000003 -0.000000 0.000001 -0.000001 0.000002 -0.000001 -0.000002 0.000002 0.000001 -0.000001 0.000002 0.000001 0.000003 0.000001 0.000001 0.000003 0.000003 0.000001 0.000003 0.000001 0.000001 0.000003 0.000003 0.000000 -0.000001 0.000000 0.000000 -0.000001 0.000000 0.000000 -0.000001 0.000000 0.000000 -0.000001 0.000000 0.000000 -0.000001 0.000000 0.000000 -0.000001 0.000000 0.000000 -0.000001 0.000000 0.000000 0.000000 -0.000000 0.000000 0.000000 -0.000000 
-0.677081 56.818794 11.678715 -25.543979 -1.115507 2.903774 0.000000 0.000000 -0.000000 -96.732479 6.460192 18.728686 100.208437 4.400705 -6.941815 6.195122 -0.175998 12.797035 -0.000002 0.000001 -0.000000 -0.000001 0.000000 -0.000001 -100.936795 -2.706858 -12.642180 96.627615 6.576476 4.197922 19.934122 0.724264 -15.134057 -0.000000 -0.000000 -0.000000 0.000000 0.000001 -0.000001 5.249434 -2.087031 -2.309276 10.665938 -2.481132 -1.357460 10.672836 -2.752942 -1.334687 1.347331 1.699682 0.198292 1.347327 1.699683 0.198291 0.000000 -0.000000 0.000000 1.347330 1.699682 0.198291 1.347400 1.699684 0.198289 -0.000000 -0.000000 -0.000000 0.000000 -0.000000 0.000000 2.175656 18.850460 -16.603918 49.084099 -2.106470 -39.339543 -0.000016 -84.206930 0.000025 -3.945543 -2.517970 20.362891 -0.988017 -5.640387 -8.149665 8.367173 30.759088 2.809261 -0.000003 0.000002 -0.000001 0.146350 3.287661 -9.104704 0.641764 2.667903 -27.046449 -0.000004 -0.000001 0.000001 0.228744 3.740040 -13.600186 0.509575 2.391648 -24.052388 -0.000000 0.000002 0.000001 0.266394 3.886966 -15.082738 0.534538 2.446767 -24.643565 0.000001 0.000001 0.000003 0.253371 3.837948 -14.586904 0.527225 2.430783 -24.471938 0.000001 -0.000007 0.000001 -0.000001 0.000002 -0.000001 -0.000001 0.000002 -0.000001 -0.000002 0.000003 -0.000001 -0.000000 0.000004 0.000002 -0.000000 0.000003 0.000000 -0.000000 0.000004 0.000002 -0.000002 0.000003 0.000001 1.495545 -5.587439 19.009412 52.867570 9.615789 26.882721 0.000128 84.320277 -0.000121 -8.321106 4.466633 -44.870740 1.603541 11.961456 15.713304 8.848280 -35.914169 -3.558447 -0.000000 -0.000004 -0.000001 0.465495 -4.208984 24.410527 0.339151 -1.746363 21.979429 0.000002 -0.000001 0.000001 0.624634 -4.525931 28.774989 0.484304 -2.069779 26.336608 -0.000001 0.000001 -0.000004 0.938565 -5.019343 35.977694 0.776059 -2.576110 33.525003 -0.000003 0.000002 0.000005 0.930698 -5.008544 35.812990 0.768680 -2.564940 33.360669 0.000002 -0.000000 0.000003 -0.000001 0.000002 -0.000000 -0.000001 0.000001 0.000000 -0.000001 0.000002 -0.000000 0.000000 -0.000001 0.000001 0.000000 0.000000 -0.000000 0.000000 -0.000001 0.000001 0.000000 0.000001 0.000001 -0.000000 -0.000001 0.000000 -0.000000 -0.000001 0.000000 -0.000000 -0.000001 0.000000 -0.000000 -0.000001 0.000000 -0.000000 -0.000001 0.000000 -0.000000 -0.000001 0.000000 -0.000000 -0.000001 0.000000 -0.000001 0.000000 -0.000000 0.000000 0.000000 -0.000000 
-0.679108 56.817299 13.199619 -25.543731 -1.120392 2.899218 0.000002 -0.000000 -0.000000 -96.781848 6.452312 18.736997 100.254671 4.421793 -6.941484 6.267581 -0.155135 12.831894 -0.000001 -0.000000 -0.000000 0.000002 0.000000 0.000002 -100.958734 -2.673988 -12.656610 96.717357 6.692928 4.196049 19.863980 0.653983 -15.123086 0.000000 0.000000 0.000000 0.000003 0.000002 -0.000003 5.439570 -2.096456 -2.303276 11.036805 -2.486084 -1.357460 11.053752 -2.752941 -1.334686 1.415421 1.699564 0.199814 1.415424 1.699557 0.199814 0.000001 0.000001 -0.000000 1.415493 1.699562 0.199811 1.415419 1.699561 0.199813 -0.000000 -0.000000 -0.000000 0.000001 0.000001 -0.000000 2.167100 18.292481 -16.126626 47.368103 -1.694454 -40.026111 -0.000159 -83.670500 -0.000124 -3.204962 -4.229726 21.028718 -0.987985 -5.640396 -8.149622 8.367158 30.759084 2.809245 -0.000001 -0.000003 -0.000001 0.146366 3.287644 -9.104703 0.641764 2.667910 -27.046449 -0.000002 -0.000000 -0.000001 0.226735 3.731729 -13.516725 0.509584 2.391639 -24.052359 0.000004 -0.000001 0.000001 0.266395 3.886973 -15.082711 0.534536 2.446754 -24.643599 -0.000003 0.000001 -0.000002 0.253381 3.837951 -14.586875 0.527219 2.430780 -24.471945 0.000003 -0.000005 0.000001 0.000003 -0.000002 0.000000 0.000003 -0.000002 0.000000 0.000002 -0.000002 0.000000 -0.000001 0.000001 -0.000002 -0.000001 -0.000000 -0.000003 -0.000001 0.000001 -0.000002 -0.000002 -0.000001 -0.000001 1.483507 -4.860608 18.934341 49.754933 9.163569 27.457878 0.000154 82.802472 -0.000177 -7.821955 10.198477 -42.261867 1.603551 11.961451 15.713310 8.848269 -35.914152 -3.558463 -0.000001 -0.000001 -0.000001 0.465501 -4.208967 24.410517 0.339170 -1.746384 21.979419 -0.000001 0.000001 -0.000001 0.624632 -4.525910 28.774983 0.484309 -2.069788 26.336593 0.000002 0.000004 -0.000004 0.938563 -5.019319 35.977711 0.776067 -2.576096 33.525007 -0.000003 -0.000003 0.000000 0.930707 -5.008538 35.812970 0.768673 -2.564931 33.360700 0.000001 0.000001 0.000003 -0.000000 0.000003 -0.000000 -0.000000 0.000002 0.000000 -0.000000 0.000002 0.000000 0.000001 -0.000002 -0.000003 0.000001 -0.000001 -0.000003 0.000001 -0.000002 -0.000003 0.000001 -0.000001 -0.000002 0.000000 -0.000000 -0.000000 0.000000 -0.000000 -0.000000 0.000000 -0.000000 -0.000000 0.000000 -0.000000 -0.000000 0.000000 -0.000000 -0.000000 0.000000 -0.000000 -0.000000 0.000000 -0.000000 -0.000000 0.000001 0.000000 -0.000000 0.000002 -0.000000 -0.000000 
